<svg xmlns="http://www.w3.org/2000/svg" width="35.99" height="32.67" viewBox="0 0 35.99 32.67"><defs><style>.a{fill:#fff;}</style></defs><path class="a" d="M33.664,26.063H29.52v-1.4a1.054,1.054,0,0,0-2.109,0v1.4H8.579v-1.4a1.054,1.054,0,0,0-2.109,0v1.4H2.325A2.328,2.328,0,0,0,0,28.388V53.956a2.328,2.328,0,0,0,2.325,2.325H33.664a2.328,2.328,0,0,0,2.325-2.325V28.388a2.328,2.328,0,0,0-2.325-2.325ZM10.156,49.045a1.054,1.054,0,1,1-1.491,1.491L7.418,49.289,6.17,50.537a1.054,1.054,0,0,1-1.491-1.491L5.926,47.8,4.679,46.55A1.054,1.054,0,0,1,6.17,45.059l1.248,1.248,1.248-1.248a1.054,1.054,0,0,1,1.491,1.491L8.909,47.8Zm0-11.865a1.054,1.054,0,1,1-1.491,1.491L7.418,37.424,6.17,38.672a1.054,1.054,0,0,1-1.491-1.491l1.248-1.248L4.679,34.685A1.054,1.054,0,1,1,6.17,33.194l1.248,1.248,1.248-1.248a1.054,1.054,0,1,1,1.491,1.491L8.909,35.933ZM20.734,49.045a1.054,1.054,0,1,1-1.491,1.491l-1.248-1.248-1.248,1.248a1.054,1.054,0,1,1-1.491-1.491L16.5,47.8,15.256,46.55a1.054,1.054,0,0,1,1.491-1.491l1.248,1.248,1.248-1.248a1.054,1.054,0,0,1,1.491,1.491L19.486,47.8Zm0-11.865a1.054,1.054,0,1,1-1.491,1.491l-1.248-1.248-1.248,1.248a1.054,1.054,0,1,1-1.491-1.491L16.5,35.933l-1.248-1.248a1.054,1.054,0,1,1,1.491-1.491l1.248,1.248,1.248-1.248a1.054,1.054,0,1,1,1.491,1.491l-1.248,1.248ZM31.311,49.045a1.054,1.054,0,1,1-1.491,1.491l-1.248-1.248-1.248,1.248a1.054,1.054,0,1,1-1.491-1.491L27.081,47.8,25.833,46.55a1.054,1.054,0,0,1,1.491-1.491l1.248,1.248,1.248-1.248a1.054,1.054,0,0,1,1.491,1.491L30.063,47.8Zm0-11.865a1.054,1.054,0,1,1-1.491,1.491l-1.248-1.248-1.248,1.248a1.054,1.054,0,1,1-1.491-1.491l1.248-1.248-1.248-1.248a1.054,1.054,0,1,1,1.491-1.491l1.248,1.248,1.248-1.248a1.054,1.054,0,1,1,1.491,1.491l-1.248,1.248Z" transform="translate(0 -23.611)"/></svg>