<svg xmlns="http://www.w3.org/2000/svg" width="28.703" height="32.821" viewBox="0 0 28.703 32.821"><defs><style>.a{fill:#fff;}</style></defs><path class="a" d="M124.262,400.6h-10.3a2.062,2.062,0,0,0-2.06,2.06v5.081h14.419v-5.081A2.062,2.062,0,0,0,124.262,400.6Zm0,0" transform="translate(-104.761 -374.922)"/><path class="a" d="M161.783,305.588a.964.964,0,0,0-.611-.279v4.186h8.1v-4.186a.964.964,0,0,0-.612.28,4.864,4.864,0,0,1-6.879,0Zm0,0" transform="translate(-150.872 -285.737)"/><path class="a" d="M317.57,308.2v4.087a3.989,3.989,0,0,1,3.158,3.9v5.081h3.227a.962.962,0,0,0,.962-.962v-3.09A9.217,9.217,0,0,0,317.57,308.2Zm0,0" transform="translate(-297.245 -288.443)"/><path class="a" d="M23.917,308.2a9.217,9.217,0,0,0-7.346,9.013v3.09a.962.962,0,0,0,.962.962h3.226v-5.081a3.989,3.989,0,0,1,3.158-3.9Zm0,0" transform="translate(-15.54 -288.443)"/><path class="a" d="M28.242,4.945H23.018A5.086,5.086,0,0,0,17.941,0H11.761A5.086,5.086,0,0,0,6.683,4.945H1.462A.962.962,0,0,0,.5,5.907,3.157,3.157,0,0,0,3.657,9.064H26.046A3.157,3.157,0,0,0,29.2,5.907.963.963,0,0,0,28.242,4.945Zm0,0" transform="translate(-0.5)"/><path class="a" d="M127.251,171.672V171.4H112.969v.274a7.141,7.141,0,0,0,14.282,0Zm0,0" transform="translate(-105.759 -160.411)"/></svg>