<svg xmlns="http://www.w3.org/2000/svg" width="36.953" height="36.953" viewBox="0 0 36.953 36.953"><defs><style>.a{fill:#2c77ff;}</style></defs><path class="a" d="M355.272,175.912a2.818,2.818,0,1,0,2.818,2.818A2.821,2.821,0,0,0,355.272,175.912Z" transform="translate(-327.016 -163.216)"/><circle class="a" cx="2.818" cy="2.818" r="2.818" transform="translate(5.879 7.224)"/><path class="a" d="M36.953,20.536s-.058-3.567-2.233-4.823c-.124-.072-.248-.137-.372-.2.124-.061.248-.127.372-.2,2.174-1.255,2.233-4.823,2.233-4.823s-3.118-1.733-5.293-.478c-.124.072-.244.147-.359.224.009-.139.015-.279.015-.422,0-2.511-3.06-4.345-3.06-4.345S25.2,7.306,25.2,9.817c0,.144.006.284.015.422-.115-.077-.235-.152-.359-.224-2.174-1.255-5.293.478-5.293.478s.058,3.567,2.233,4.823c.124.072.248.137.372.2-.124.061-.248.127-.372.2-2.174,1.255-2.233,4.823-2.233,4.823s3.118,1.733,5.293.478c.124-.072.244-.147.359-.224-.009.139-.015.279-.015.422a5.056,5.056,0,0,0,1.978,3.534V34.788H9.78V31.522H12a3.3,3.3,0,0,0,3.3-3.3V27.174h-3.3a3.284,3.284,0,0,0-2.213.854V19.274a5.056,5.056,0,0,0,1.978-3.534c0-.144-.006-.284-.015-.422.115.077.235.152.359.224,2.174,1.255,5.293-.478,5.293-.478s-.058-3.567-2.233-4.823c-.124-.072-.248-.137-.372-.2.124-.061.248-.127.372-.2,2.174-1.255,2.233-4.823,2.233-4.823S14.275,3.288,12.1,4.543c-.124.072-.244.147-.359.224.009-.139.015-.279.015-.422C11.757,1.834,8.7,0,8.7,0s-3.06,1.834-3.06,4.345c0,.144.006.284.015.422-.115-.077-.235-.152-.359-.224C3.118,3.288,0,5.021,0,5.021S.058,8.589,2.233,9.844c.124.072.248.137.372.2-.124.061-.248.127-.372.2C.058,11.5,0,15.064,0,15.064s3.118,1.733,5.293.478c.124-.072.244-.147.359-.224-.009.139-.015.279-.015.422a5.056,5.056,0,0,0,1.978,3.534v4.405A3.284,3.284,0,0,0,5.4,22.825H2.1v1.052a3.3,3.3,0,0,0,3.3,3.3H7.614v7.614H0v2.165H36.953V34.788H29.339V31.522h2.221a3.3,3.3,0,0,0,3.3-3.3V27.174h-3.3a3.284,3.284,0,0,0-2.213.854V24.746a5.056,5.056,0,0,0,1.978-3.534c0-.144-.006-.284-.015-.422.115.077.235.152.359.224C33.835,22.269,36.953,20.536,36.953,20.536ZM3.714,10.042A4.983,4.983,0,1,1,8.7,15.026,4.989,4.989,0,0,1,3.714,10.042ZM28.256,20.5a4.983,4.983,0,1,1,4.983-4.983A4.989,4.989,0,0,1,28.256,20.5Z" transform="translate(0)"/></svg>