<svg xmlns="http://www.w3.org/2000/svg" width="31.953" height="31.953" viewBox="0 0 31.953 31.953"><defs><style>.a{fill:#2c77ff;}</style></defs><g transform="translate(-293 -474)"><path class="a" d="M14.645,14a1,1,0,0,0-1-1H8.654v3.994a1.331,1.331,0,1,1-2.663,0V13H1a1,1,0,0,0-1,1V26.647a1,1,0,0,0,1,1H13.647a1,1,0,0,0,1-1Z" transform="translate(293 478.308)"/><path class="a" d="M27.645,14a1,1,0,0,0-1-1H21.654v3.994a1.331,1.331,0,1,1-2.663,0V13H14a1,1,0,0,0-1,1V26.647a1,1,0,0,0,1,1H26.647a1,1,0,0,0,1-1Z" transform="translate(297.308 478.308)"/><path class="a" d="M21.145,1a1,1,0,0,0-1-1H15.154V3.994a1.331,1.331,0,1,1-2.663,0V0H7.5a1,1,0,0,0-1,1V13.647a1,1,0,0,0,1,1H20.147a1,1,0,0,0,1-1Z" transform="translate(295.154 474)"/></g></svg>