<svg xmlns="http://www.w3.org/2000/svg" width="37.402" height="32" viewBox="0 0 37.402 32"><defs><style>.a{fill:#fff;}</style></defs><path class="a" d="M1358.78,247.207a67.838,67.838,0,0,1-12.03-1.116,10.955,10.955,0,0,1-1.414-.351c-1.146-.384-1.283-.868-1.148-1.764a12.5,12.5,0,0,1,1.895-5.263,4.625,4.625,0,0,1,1.891-1.649q2.911-1.361,5.821-2.725c.315-.148.61-.338.914-.51.2-.115.248-.253.09-.452a7.158,7.158,0,0,1-1.254-2.487,1.191,1.191,0,0,0-.242-.413,5.911,5.911,0,0,1-1.5-3.355,5.663,5.663,0,0,1,.08-1.223.626.626,0,0,1,.242-.4.7.7,0,0,0,.309-.669,24.166,24.166,0,0,1,.059-2.762,5.077,5.077,0,0,1,4.658-4.731,8.326,8.326,0,0,1,3.337.146,4.929,4.929,0,0,1,3.821,3.92,7.525,7.525,0,0,1,.161,1.406c.028.7-.009,1.4.026,2.092a1.653,1.653,0,0,0,.267.564,2.582,2.582,0,0,1,.307.614,4.52,4.52,0,0,1-.777,3.414,13.143,13.143,0,0,0-1.415,2.644,5.974,5.974,0,0,1-.694,1.147c-.239.357-.247.407.144.618.724.389,1.451.775,2.191,1.133a.834.834,0,0,1,.5.738,3.6,3.6,0,0,0,.447,1.2c.268.479.117.9-.421.976a1.842,1.842,0,0,0-1.7,1.74,5.107,5.107,0,0,0,.1,2.329,1.685,1.685,0,0,0,1.493,1.271c.685.074.855.494.471,1.06a1.75,1.75,0,0,0-.134,2.091c.155.239.086.372-.2.4-.831.072-1.661.166-2.493.211C1361.2,247.12,1359.806,247.165,1358.78,247.207Z" transform="translate(-1344.145 -217.233)"/><path class="a" d="M1616.417,427.9c-.054-.154-.094-.284-.145-.409-.14-.346-.307-.683-.422-1.037a.578.578,0,0,0-.663-.463c-.037,0-.075,0-.112,0-.962-.01-1.167-.176-1.222-1.135a7.9,7.9,0,0,1,.077-1.486c.065-.487.3-.723.78-.673a1.028,1.028,0,0,0,1.3-.951.089.089,0,0,1,.014-.034,1.141,1.141,0,0,0-.277-1.786.585.585,0,0,1-.093-.817,4.579,4.579,0,0,1,1.574-1.565.615.615,0,0,1,.874.13c.478.648.964.589,1.664.3.72-.3,1.171-.582,1.056-1.447a.59.59,0,0,1,.612-.707,12.994,12.994,0,0,1,2,0,.639.639,0,0,1,.66.788,1.027,1.027,0,0,0,.927,1.29,2.819,2.819,0,0,1,.68.3.515.515,0,0,0,.676-.11c.076-.082.159-.158.239-.237.546-.541.8-.589,1.374-.1a8.827,8.827,0,0,1,1.194,1.272.615.615,0,0,1-.1.988,1.03,1.03,0,0,0-.262,1.572,2.487,2.487,0,0,1,.25.662.536.536,0,0,0,.609.43c.025,0,.05,0,.075,0,1.024-.023,1.24.081,1.316,1.318a6.334,6.334,0,0,1-.093,1.336c-.072.464-.307.694-.767.643a1.036,1.036,0,0,0-1.315.941,2.038,2.038,0,0,1-.21.477c-.265.552-.259.588.184,1.034.1.1.2.193.287.294a.661.661,0,0,1,.088.857,4.605,4.605,0,0,1-1.549,1.54.618.618,0,0,1-.877-.112,1.071,1.071,0,0,0-1.66-.282,1.833,1.833,0,0,1-.415.166c-.626.227-.627.226-.633.913-.007.84-.133,1.032-.961,1.11a8.136,8.136,0,0,1-1.707-.062.629.629,0,0,1-.629-.776c.092-.774-.279-1.047-.944-1.33-.749-.32-1.3-.427-1.834.3a.585.585,0,0,1-.818.081,4.574,4.574,0,0,1-1.562-1.577.642.642,0,0,1,.089-.825c.151-.165.322-.314.466-.484A2.21,2.21,0,0,0,1616.417,427.9Zm6.007.892a4.461,4.461,0,1,0-4.425-4.5A4.447,4.447,0,0,0,1622.424,428.787Z" transform="translate(-1593.681 -400.928)"/></svg>