<svg xmlns="http://www.w3.org/2000/svg" width="29.522" height="36" viewBox="0 0 29.522 36"><defs><style>.a{fill:#fff;}</style></defs><path class="a" d="M17.426,19.818V18.182l1.8-1.309a.6.6,0,0,0,.164-.491L17.754,13.6c-.164-.164-.327-.327-.491-.164l-2.127.655a6.633,6.633,0,0,0-1.473-.818l-.327-2.127c0-.164-.164-.327-.491-.327H9.572c-.164,0-.327.164-.491.327l-.327,2.127a6.633,6.633,0,0,0-1.473.818l-2.127-.818a.6.6,0,0,0-.491.164L3.026,16.218c-.164.164,0,.327.164.491l1.8,1.309v1.636l-1.8,1.309a1.237,1.237,0,0,0-.164.655L4.663,24.4c.164.164.327.327.491.164l2.291-.655a6.633,6.633,0,0,0,1.473.818l.327,2.127c-.164.164.164.327.327.327h3.273c.164,0,.327-.164.491-.327l.327-2.127a6.633,6.633,0,0,0,1.473-.818l2.127.818a.6.6,0,0,0,.491-.164l1.636-2.782c.164-.164,0-.327-.164-.491l-1.8-1.473Zm-6.218,2.455A3.273,3.273,0,1,1,14.481,19,3.282,3.282,0,0,1,11.208,22.273ZM29.208,1H12.845A3.282,3.282,0,0,0,9.572,4.273V9.182h3.273V5.909H29.208V32.091H12.845V28.818H9.572v4.909A3.282,3.282,0,0,0,12.845,37H29.208a3.282,3.282,0,0,0,3.273-3.273V4.273A3.282,3.282,0,0,0,29.208,1Z" transform="translate(-2.959 -1)"/></svg>