<svg xmlns="http://www.w3.org/2000/svg" width="36.441" height="36.442" viewBox="0 0 36.441 36.442"><defs><style>.a{fill:#fff;}</style></defs><g transform="translate(0 0)"><path class="a" d="M36.021,13.025,18.868.214a1.063,1.063,0,0,0-1.28,0L.435,13.025a1.067,1.067,0,1,0,1.28,1.708l.427-.321V35.374a1.067,1.067,0,0,0,1.068,1.068H33.246a1.067,1.067,0,0,0,1.068-1.068V14.412l.427.321a1.067,1.067,0,1,0,1.28-1.708ZM25.7,31.1a1.067,1.067,0,0,1-1.068,1.068H11.823A1.067,1.067,0,0,1,10.755,31.1a7.463,7.463,0,0,1,6.406-7.365V22.42A4.2,4.2,0,0,0,15.6,19.167,7.461,7.461,0,0,1,8.62,11.744a1.067,1.067,0,0,1,1.068-1.068,7.461,7.461,0,0,1,7.424,6.982,7.583,7.583,0,0,1,1.117,1.28,7.586,7.586,0,0,1,1.117-1.28,7.461,7.461,0,0,1,7.424-6.982,1.067,1.067,0,0,1,1.068,1.068,7.461,7.461,0,0,1-6.982,7.424A4.2,4.2,0,0,0,19.3,22.42v1.318A7.463,7.463,0,0,1,25.7,31.1Z" transform="translate(-0.008 0)"/></g><g transform="translate(10.885 12.949)"><path class="a" d="M152.935,181.924a5.355,5.355,0,0,0,4,4A5.356,5.356,0,0,0,152.935,181.924Z" transform="translate(-152.935 -181.924)"/></g><g transform="translate(12.989 25.766)"><path class="a" d="M187.727,362a5.349,5.349,0,0,0-5.232,4.27h10.464A5.349,5.349,0,0,0,187.727,362Z" transform="translate(-182.495 -362.003)"/></g><g transform="translate(21.561 12.949)"><path class="a" d="M302.933,185.921a5.356,5.356,0,0,0,4-4A5.356,5.356,0,0,0,302.933,185.921Z" transform="translate(-302.933 -181.924)"/></g></svg>