<svg xmlns="http://www.w3.org/2000/svg" width="30" height="29.996" viewBox="0 0 30 29.996"><defs><style>.a{fill:#fff;}</style></defs><path class="a" d="M24.708,23.859H23a4.708,4.708,0,0,0-3.9-3.2,4.69,4.69,0,0,0-3.214-2.3V9.087A7.94,7.94,0,0,0,26.677,3l.249-1.524L25.533.81A7.933,7.933,0,0,0,15,4.444,7.933,7.933,0,0,0,4.467.81l-1.393.666L3.323,3A7.95,7.95,0,0,0,14.118,9.087v9.266a4.69,4.69,0,0,0-3.214,2.3,4.708,4.708,0,0,0-3.9,3.2H5.292A5.3,5.3,0,0,0,0,29.151v.882H30v-.882a5.3,5.3,0,0,0-5.292-5.292ZM12.353,26.5H10.588V24.739h1.765Zm3.529-2.353H14.118V22.386h1.765ZM19.412,26.5H17.647V24.739h1.765Z" transform="translate(0 -0.038)"/></svg>